<?xml version="1.0" encoding="utf-8"?>
<!-- Generator: Adobe Illustrator 29.8.3, SVG Export Plug-In . SVG Version: 9.03 Build 0)  -->
<svg version="1.0" id="Layer_1" xmlns="http://www.w3.org/2000/svg" xmlns:xlink="http://www.w3.org/1999/xlink" x="0px" y="0px"
	 viewBox="0 0 329.2 118.6" style="enable-background:new 0 0 329.2 118.6;" xml:space="preserve">
<style type="text/css">
	.st0{clip-path:url(#SVGID_00000000937758829822245760000011319028561956736164_);}
	.st1{clip-path:url(#SVGID_00000093885313235957819470000010464771551774704262_);}
	.st2{clip-path:url(#SVGID_00000142141242590672592660000007109502264347634054_);}
	.st3{clip-path:url(#SVGID_00000049924937165785171460000009870587158307448991_);}
	.st4{clip-path:url(#SVGID_00000039122811487721460030000004001288373471237520_);}
	.st5{fill:#FB4C00;}
	.st6{clip-path:url(#SVGID_00000155862001842522610510000001942066520181819522_);}
	.st7{clip-path:url(#SVGID_00000022551925708848924370000006956718363326143632_);}
	.st8{clip-path:url(#SVGID_00000073695410439485020940000011667080523265293186_);}
	.st9{clip-path:url(#SVGID_00000098926027752121861090000006411258990286085279_);}
	.st10{clip-path:url(#SVGID_00000057137265840750351580000001567398777043865987_);}
	.st11{clip-path:url(#SVGID_00000075873988605079708600000018274398543371089804_);}
	.st12{clip-path:url(#SVGID_00000055690030937824319420000011102509727259410568_);}
	.st13{clip-path:url(#SVGID_00000181055862700186082450000008624768091548334003_);}
	.st14{clip-path:url(#SVGID_00000117668418785041438070000016791854802946630042_);}
	.st15{clip-path:url(#SVGID_00000154419956249917293670000010122329173908920750_);}
</style>
<g id="Layer_1_00000105418601367034094910000013781692337587504031_">
	<g>
		<g>
			<g>
				<path d="M60.3,111.9C31,111.9,7.1,88,7.1,58.7S31,5.5,60.3,5.5s53.2,23.9,53.2,53.2S89.6,111.9,60.3,111.9z M60.3,18.5
					c-22.2,0-40.2,18-40.2,40.2s18,40.2,40.2,40.2s40.2-18,40.2-40.2S82.5,18.5,60.3,18.5z"/>
			</g>
			<g>
				<g>
					<g>
						<defs>
							<rect id="SVGID_1_" x="95.3" y="35.2" width="8.7" height="8.7"/>
						</defs>
						<clipPath id="SVGID_00000119100054800816445820000003586890968480736412_">
							<use xlink:href="#SVGID_1_"  style="overflow:visible;"/>
						</clipPath>
						<g style="clip-path:url(#SVGID_00000119100054800816445820000003586890968480736412_);">
							<g>
								<g>
									<g>
										<defs>
											<circle id="SVGID_00000173844655298906443110000004119362335456413877_" cx="99.7" cy="39.5" r="4.4"/>
										</defs>
										<clipPath id="SVGID_00000145760183155169565600000014476732736012522934_">
											<use xlink:href="#SVGID_00000173844655298906443110000004119362335456413877_"  style="overflow:visible;"/>
										</clipPath>
										<g style="clip-path:url(#SVGID_00000145760183155169565600000014476732736012522934_);">
											<g transform="matrix(1, 0, 0, 1, 160, 177)">
												<g>
													<g>
														<g>
															<defs>
																
																	<rect id="SVGID_00000054239349395119188260000015372752266113376426_" x="-64.8" y="-143.7" width="9.9" height="12.4"/>
															</defs>
															<clipPath id="SVGID_00000086672369789981293710000008837478521018280618_">
																<use xlink:href="#SVGID_00000054239349395119188260000015372752266113376426_"  style="overflow:visible;"/>
															</clipPath>
															<g style="clip-path:url(#SVGID_00000086672369789981293710000008837478521018280618_);">
																<g>
																	<g>
																		<g>
																			<defs>
																				
																					<rect id="SVGID_00000020377525599545986320000001150402774301559436_" x="-64.7" y="-141.8" width="8.7" height="8.7"/>
																			</defs>
																			<clipPath id="SVGID_00000090258388461944532780000001322850413662344613_">
																				<use xlink:href="#SVGID_00000020377525599545986320000001150402774301559436_"  style="overflow:visible;"/>
																			</clipPath>
																			<g style="clip-path:url(#SVGID_00000090258388461944532780000001322850413662344613_);">
																				<g>
																					<g>
																						<g>
																							<defs>
																								
																									<ellipse id="SVGID_00000039822022145015689470000017775375589225553300_" transform="matrix(0.9951 -9.853780e-02 9.853780e-02 0.9951 13.2555 -6.611)" cx="-60.3" cy="-137.5" rx="4.4" ry="4.4"/>
																							</defs>
																							<clipPath id="SVGID_00000140012101403905282340000002365052799128395198_">
																								
																									<use xlink:href="#SVGID_00000039822022145015689470000017775375589225553300_"  style="overflow:visible;"/>
																							</clipPath>
																							<g style="clip-path:url(#SVGID_00000140012101403905282340000002365052799128395198_);">
																								<path class="st5" d="M-64.7-141.8h8.8v8.7h-8.8V-141.8z"/>
																							</g>
																						</g>
																					</g>
																				</g>
																			</g>
																		</g>
																	</g>
																</g>
															</g>
														</g>
													</g>
												</g>
											</g>
										</g>
									</g>
								</g>
							</g>
						</g>
					</g>
				</g>
			</g>
			<g>
				<g>
					<g>
						<defs>
							<rect id="SVGID_00000150090734275510521600000011139915901546736769_" x="78.6" y="23.1" width="16.8" height="16.8"/>
						</defs>
						<clipPath id="SVGID_00000134226574482021102210000007400807439147345290_">
							<use xlink:href="#SVGID_00000150090734275510521600000011139915901546736769_"  style="overflow:visible;"/>
						</clipPath>
						<g style="clip-path:url(#SVGID_00000134226574482021102210000007400807439147345290_);">
							<g>
								<g>
									<circle id="SVGID_00000087413032621145906420000013139028551112531098_" cx="87" cy="31.5" r="8.4"/>
								</g>
								<g>
									<g>
										<defs>
											<circle id="SVGID_00000018918009282085674450000011542374839569415861_" cx="87" cy="31.5" r="8.4"/>
										</defs>
										<clipPath id="SVGID_00000143601061779245870890000007280969794370817963_">
											<use xlink:href="#SVGID_00000018918009282085674450000011542374839569415861_"  style="overflow:visible;"/>
										</clipPath>
										<g style="clip-path:url(#SVGID_00000143601061779245870890000007280969794370817963_);">
											<g transform="matrix(1, 0, 0, 1, 153, 172)">
												<g>
													<g>
														
															<rect id="SVGID_00000029047480556901245470000004274897225420029112_" x="-75.1" y="-151" width="19.8" height="19.8"/>
													</g>
													<g>
														<g>
															<defs>
																
																	<rect id="SVGID_00000147940641355397951640000011785785962917826989_" x="-75.1" y="-151" width="19.8" height="19.8"/>
															</defs>
															<clipPath id="SVGID_00000027589654388067099800000008335769645294181277_">
																<use xlink:href="#SVGID_00000147940641355397951640000011785785962917826989_"  style="overflow:visible;"/>
															</clipPath>
															<g style="clip-path:url(#SVGID_00000027589654388067099800000008335769645294181277_);">
																<g>
																	<g>
																		
																			<rect id="SVGID_00000052094616922173706710000006170805904046984324_" x="-74.4" y="-148.9" width="16.8" height="16.8"/>
																	</g>
																	<g>
																		<g>
																			<defs>
																				
																					<rect id="SVGID_00000052095797214587373770000015842237462630326437_" x="-74.4" y="-148.9" width="16.8" height="16.8"/>
																			</defs>
																			<clipPath id="SVGID_00000072272144716029573590000016482830485154408858_">
																				<use xlink:href="#SVGID_00000052095797214587373770000015842237462630326437_"  style="overflow:visible;"/>
																			</clipPath>
																			<g style="clip-path:url(#SVGID_00000072272144716029573590000016482830485154408858_);">
																				<g>
																					<g>
																						<circle id="SVGID_00000129915239956221116170000017230729399379629467_" cx="-66" cy="-140.5" r="8.4"/>
																					</g>
																					<g>
																						<g>
																							<defs>
																								
																									<ellipse id="SVGID_00000134928121940417317390000006272832987158882951_" transform="matrix(0.2133 -0.977 0.977 0.2133 85.2803 -175.0875)" cx="-66.1" cy="-140.5" rx="8.4" ry="8.4"/>
																							</defs>
																							<clipPath id="SVGID_00000141432794564832029210000012694873808327244961_">
																								
																									<use xlink:href="#SVGID_00000134928121940417317390000006272832987158882951_"  style="overflow:visible;"/>
																							</clipPath>
																							<g style="clip-path:url(#SVGID_00000141432794564832029210000012694873808327244961_);">
																								<path d="M-74.4-148.9h16.8v16.8h-16.8V-148.9z"/>
																							</g>
																						</g>
																					</g>
																				</g>
																			</g>
																		</g>
																	</g>
																</g>
															</g>
														</g>
													</g>
												</g>
											</g>
										</g>
									</g>
								</g>
							</g>
						</g>
					</g>
				</g>
			</g>
			<g>
				<g>
					<g>
						<defs>
							<rect id="SVGID_00000069356835289470383070000008772880881949339274_" x="81.1" y="25.3" width="12.4" height="12.4"/>
						</defs>
						<clipPath id="SVGID_00000029008198846402772570000016971098852428770722_">
							<use xlink:href="#SVGID_00000069356835289470383070000008772880881949339274_"  style="overflow:visible;"/>
						</clipPath>
						<g style="clip-path:url(#SVGID_00000029008198846402772570000016971098852428770722_);">
							<g>
								<g>
									<g>
										<defs>
											<circle id="SVGID_00000116916051723905216310000003972810685802899894_" cx="87.3" cy="31.5" r="6.2"/>
										</defs>
										<clipPath id="SVGID_00000059988245980347649990000004100905412703067787_">
											<use xlink:href="#SVGID_00000116916051723905216310000003972810685802899894_"  style="overflow:visible;"/>
										</clipPath>
										<g style="clip-path:url(#SVGID_00000059988245980347649990000004100905412703067787_);">
											<g transform="matrix(1, 0, 0, 1, 154, 173)">
												<g>
													<g>
														<g>
															<defs>
																
																	<rect id="SVGID_00000090997297782377385100000010316504218539082902_" x="-73.6" y="-149.6" width="14.9" height="14.9"/>
															</defs>
															<clipPath id="SVGID_00000091734960629325692500000013557506186374174877_">
																<use xlink:href="#SVGID_00000090997297782377385100000010316504218539082902_"  style="overflow:visible;"/>
															</clipPath>
															<g style="clip-path:url(#SVGID_00000091734960629325692500000013557506186374174877_);">
																<g>
																	<g>
																		<g>
																			<defs>
																				
																					<rect id="SVGID_00000155859705263472841180000003392308099976846506_" x="-72.9" y="-147.7" width="12.4" height="12.4"/>
																			</defs>
																			<clipPath id="SVGID_00000109725691517731798510000006487205227964739996_">
																				<use xlink:href="#SVGID_00000155859705263472841180000003392308099976846506_"  style="overflow:visible;"/>
																			</clipPath>
																			<g style="clip-path:url(#SVGID_00000109725691517731798510000006487205227964739996_);">
																				<g>
																					<g>
																						<g>
																							<defs>
																								<circle id="SVGID_00000170974410291682443950000013239975711199851453_" cx="-66.7" cy="-141.5" r="6.2"/>
																							</defs>
																							<clipPath id="SVGID_00000116228188414938110510000010890811978151773321_">
																								
																									<use xlink:href="#SVGID_00000170974410291682443950000013239975711199851453_"  style="overflow:visible;"/>
																							</clipPath>
																							<g style="clip-path:url(#SVGID_00000116228188414938110510000010890811978151773321_);">
																								<path class="st5" d="M-72.9-147.7h12.4v12.4h-12.4V-147.7z"/>
																							</g>
																						</g>
																					</g>
																				</g>
																			</g>
																		</g>
																	</g>
																</g>
															</g>
														</g>
													</g>
												</g>
											</g>
										</g>
									</g>
								</g>
							</g>
						</g>
					</g>
				</g>
			</g>
		</g>
		<g>
			<g>
				<g>
					<g transform="translate(174.118776, 204.981301)">
						<g>
							<path d="M-31.8-104.1c0,1.6-0.4,2.9-1.2,4.1c-0.8,1.1-1.9,1.9-3.3,2.5c-1.4,0.6-3.1,0.9-5,0.9c-1,0-1.9-0.1-2.8-0.2
								c-0.9-0.1-1.7-0.2-2.5-0.4c-0.7-0.2-1.4-0.5-2-0.8v-3.5c1,0.4,2.2,0.8,3.5,1.1c1.3,0.4,2.7,0.5,4.1,0.5
								c1.2,0,2.2-0.2,3.1-0.5c0.8-0.3,1.4-0.8,1.9-1.4c0.4-0.6,0.6-1.3,0.6-2.2c0-0.8-0.2-1.5-0.6-2.1c-0.4-0.6-1.1-1.1-2-1.6
								s-2-1-3.5-1.6c-1-0.4-1.9-0.8-2.7-1.2c-0.8-0.5-1.5-1-2.1-1.6s-1.1-1.3-1.4-2.1s-0.5-1.8-0.5-2.8c0-1.5,0.4-2.7,1.1-3.8
								c0.7-1,1.7-1.8,3-2.4c1.3-0.5,2.8-0.8,4.5-0.8c1.4,0,2.7,0.1,3.9,0.4s2.4,0.6,3.4,1.1l-1.2,3.1c-1-0.4-2-0.8-3.1-1.1
								c-1-0.3-2.1-0.4-3.3-0.4c-1,0-1.9,0.2-2.6,0.5s-1.3,0.7-1.6,1.3c-0.4,0.5-0.5,1.2-0.5,2c0,0.9,0.2,1.6,0.6,2.1
								c0.4,0.6,1,1.1,1.8,1.6c0.9,0.4,2,0.9,3.3,1.4c1.5,0.6,2.7,1.2,3.8,1.9c1.1,0.6,1.9,1.4,2.5,2.3
								C-32.1-106.7-31.8-105.5-31.8-104.1z"/>
						</g>
					</g>
				</g>
				<g>
					<g transform="translate(181.641412, 204.981301)">
						<g>
							<path d="M-9.8-110.3c0,2-0.3,3.9-0.8,5.6s-1.3,3.1-2.3,4.3s-2.3,2.1-3.8,2.8c-1.5,0.6-3.3,1-5.3,1c-2.1,0-3.9-0.3-5.4-1
								c-1.5-0.6-2.8-1.6-3.8-2.8c-1-1.2-1.8-2.7-2.3-4.3c-0.5-1.7-0.8-3.6-0.8-5.6c0-2.7,0.4-5.1,1.3-7.1c0.9-2,2.3-3.6,4.1-4.8
								c1.8-1.1,4.1-1.7,6.9-1.7c2.7,0,4.9,0.6,6.7,1.7s3.2,2.7,4.1,4.7C-10.3-115.4-9.8-113-9.8-110.3z M-30.4-110.3
								c0,2.2,0.3,4,0.9,5.6c0.6,1.5,1.5,2.8,2.7,3.6s2.8,1.2,4.8,1.2c1.9,0,3.5-0.4,4.7-1.2c1.2-0.9,2.2-2.1,2.7-3.6
								c0.6-1.6,0.9-3.4,0.9-5.6c0-3.2-0.7-5.8-2-7.6s-3.4-2.8-6.3-2.8c-1.9,0-3.5,0.4-4.8,1.2c-1.2,0.8-2.2,2-2.8,3.6
								C-30.1-114.3-30.4-112.4-30.4-110.3z"/>
						</g>
					</g>
				</g>
				<g>
					<g transform="translate(192.197316, 204.981301)">
						<g>
							<path d="M-9.8-97h-3.7v-26.5H1.3v3.2H-9.8v9H0.6v3.2H-9.8V-97z"/>
						</g>
					</g>
				</g>
				<g>
					<g transform="translate(199.402664, 204.981301)">
						<g>
							<path d="M8.5-97H4.8v-23.3h-8v-3.2h19.8v3.2h-8L8.5-97L8.5-97z"/>
						</g>
					</g>
				</g>
				<g>
					<g transform="translate(207.045875, 204.981301)">
						<g>
							<path d="M44.7-123.5l-7,26.5h-3.9L29-113.8c-0.2-0.4-0.3-0.9-0.4-1.4s-0.2-1-0.4-1.6c-0.1-0.5-0.2-1-0.3-1.4
								c-0.1-0.4-0.2-0.7-0.2-0.9c0,0.2-0.1,0.5-0.2,0.9s-0.2,0.8-0.3,1.3c-0.1,0.5-0.2,1-0.4,1.6c-0.1,0.5-0.3,1-0.4,1.5L21.7-97
								h-3.9l-7-26.5h3.8l4.1,16c0.1,0.5,0.2,1.1,0.4,1.6c0.1,0.5,0.3,1.1,0.4,1.6s0.2,1.1,0.3,1.6c0.1,0.5,0.2,1,0.2,1.4
								c0.1-0.5,0.1-1,0.2-1.5s0.2-1.1,0.4-1.6c0.1-0.6,0.2-1.1,0.4-1.6c0.1-0.6,0.2-1.1,0.4-1.6l4.5-16h3.7l4.7,16.1
								c0.1,0.5,0.3,1,0.4,1.6c0.1,0.5,0.3,1.1,0.4,1.6s0.2,1.1,0.3,1.6s0.2,1,0.3,1.4c0.1-0.6,0.2-1.2,0.3-1.9
								c0.1-0.7,0.3-1.4,0.4-2.2c0.2-0.8,0.3-1.5,0.5-2.2l4.1-16L44.7-123.5L44.7-123.5z"/>
						</g>
					</g>
				</g>
				<g>
					<g transform="translate(219.575313, 204.981301)">
						<g>
							<path d="M53.7-97l-2.9-7.9H40.5L37.6-97h-3.9l10.1-26.6h3.8l10,26.6H53.7z M49.7-108.1l-2.8-7.8c-0.1-0.3-0.2-0.7-0.4-1.2
								s-0.4-1.1-0.5-1.6c-0.2-0.6-0.3-1-0.4-1.4c-0.2,0.5-0.3,1-0.4,1.6c-0.2,0.5-0.3,1-0.4,1.5c-0.2,0.5-0.3,0.9-0.4,1.2l-2.9,7.8
								L49.7-108.1C49.7-108,49.7-108.1,49.7-108.1z"/>
						</g>
					</g>
				</g>
				<g>
					<g transform="translate(228.37345, 204.981301)">
						<g>
							<path d="M60.8-123.5c2.3,0,4.1,0.3,5.5,0.8s2.5,1.4,3.3,2.5c0.7,1.1,1.1,2.5,1.1,4.2c0,1.3-0.3,2.5-0.8,3.4s-1.1,1.7-1.9,2.3
								c-0.8,0.6-1.7,1.1-2.6,1.4l7.4,11.8h-4.2l-6.5-10.8h-4.9v10.8h-3.7v-26.5L60.8-123.5C60.8-123.6,60.8-123.5,60.8-123.5z
								 M60.6-120.3h-3.3v9.4h3.6c2.1,0,3.6-0.4,4.5-1.2c1-0.8,1.5-2,1.5-3.7s-0.5-2.8-1.6-3.5C64.3-120,62.7-120.3,60.6-120.3z"/>
						</g>
					</g>
				</g>
				<g>
					<g transform="translate(236.924097, 204.981301)">
						<g>
							<path d="M84.2-97H69.4v-26.5h14.8v3.2H73.1v7.8h10.5v3.2H73.1v9h11.1V-97z"/>
						</g>
					</g>
				</g>
			</g>
			<g>
				<g>
					<g transform="translate(1.044099, 32.20354)">
						<g>
							<path class="st5" d="M129.6,40.8c-1.5,0-2.8-0.5-3.7-1.5c-1-1-1.4-2.3-1.4-3.8V-0.2c0-1.5,0.5-2.7,1.4-3.7
								c1-1,2.2-1.5,3.7-1.5s2.7,0.5,3.7,1.5s1.5,2.2,1.5,3.7v8.1l-0.6-5.8c0.6-1.4,1.4-2.6,2.4-3.7s2.2-2,3.4-2.7
								c1.3-0.7,2.6-1.3,4.1-1.6c1.4-0.3,2.9-0.5,4.3-0.5c1.7,0,3.2,0.5,4.3,1.5c1.2,1,1.8,2.1,1.8,3.4c0,1.9-0.5,3.3-1.5,4.1
								s-2,1.2-3.2,1.2c-1.1,0-2.1-0.2-3-0.6s-1.9-0.6-3.1-0.6c-1.1,0-2.1,0.3-3.2,0.8c-1.1,0.5-2,1.3-2.9,2.3S136,8,135.5,9.5
								s-0.8,3.3-0.8,5.4v20.5c0,1.5-0.5,2.8-1.5,3.8C132.3,40.3,131.1,40.8,129.6,40.8z"/>
						</g>
					</g>
				</g>
				<g>
					<g transform="translate(14.118775, 32.20354)">
						<g>
							<path class="st5" d="M167.5-6.3c3.3,0,6.2,0.4,8.6,1.1c2.5,0.7,4.4,1.7,5.7,2.9c1.4,1.2,2,2.7,2,4.4c0,1.2-0.3,2.3-1,3.3
								s-1.7,1.5-3,1.5c-0.9,0-1.7-0.1-2.3-0.4s-1.1-0.6-1.6-1s-1-0.8-1.6-1.1c-0.6-0.3-1.4-0.6-2.6-0.8c-1.2-0.2-2.1-0.3-2.6-0.3
								c-3,0-5.5,0.6-7.5,1.9s-3.6,3-4.7,5.1c-1.1,2.2-1.6,4.7-1.6,7.5s0.6,5.2,1.7,7.4c1.1,2.2,2.7,3.9,4.7,5.2s4.3,1.9,6.9,1.9
								c1.4,0,2.7-0.1,3.7-0.3s1.9-0.4,2.6-0.8c0.8-0.5,1.5-1,2.1-1.5s1.6-0.8,2.9-0.8c1.5,0,2.7,0.5,3.4,1.4
								c0.8,0.9,1.2,2.1,1.2,3.4c0,1.4-0.8,2.8-2.4,4c-1.6,1.2-3.7,2.2-6.3,2.9s-5.5,1.1-8.5,1.1c-4.5,0-8.5-1-11.8-3.2
								c-3.4-2.1-5.9-5-7.8-8.6c-1.8-3.6-2.7-7.7-2.7-12.2c0-4.7,1-8.9,2.9-12.5s4.6-6.4,8-8.5C159.1-5.3,163.1-6.3,167.5-6.3z"/>
						</g>
					</g>
				</g>
				<g>
					<g transform="translate(30.620804, 32.20354)">
						<g>
							<path class="st5" d="M199.7-6.3c4.1,0,7.3,0.9,9.5,2.7s3.6,4.2,4.4,7.2s1.2,6.2,1.2,9.9v22.1c0,1.5-0.5,2.8-1.5,3.8
								s-2.2,1.5-3.7,1.5s-2.8-0.5-3.7-1.5c-1-1-1.4-2.3-1.4-3.8V13.4c0-1.9-0.2-3.6-0.7-5.1s-1.3-2.7-2.5-3.7
								c-1.2-0.9-2.9-1.4-5.2-1.4c-2.2,0-4.1,0.5-5.6,1.4s-2.7,2.1-3.5,3.7c-0.8,1.5-1.1,3.2-1.1,5.1v22.1c0,1.5-0.5,2.8-1.5,3.8
								s-2.2,1.5-3.7,1.5s-2.8-0.5-3.7-1.5c-1-1-1.4-2.3-1.4-3.8v-53.4c0-1.5,0.5-2.7,1.4-3.7c1-1,2.2-1.5,3.7-1.5s2.7,0.5,3.7,1.5
								s1.5,2.2,1.5,3.7V3.6l-1.3-0.3c0.5-1,1.3-2,2.2-3.2c0.9-1.1,2.1-2.2,3.4-3.2s2.8-1.8,4.4-2.4C196.1-6,197.8-6.3,199.7-6.3z"
								/>
						</g>
					</g>
				</g>
				<g>
					<g transform="translate(49.21731, 32.20354)">
						<g>
							<path class="st5" d="M217.3,35.5c0,1.5-0.5,2.8-1.5,3.8s-2.2,1.5-3.7,1.5s-2.8-0.5-3.7-1.5c-1-1-1.4-2.3-1.4-3.8V-0.2
								c0-1.5,0.5-2.7,1.4-3.7c1-1,2.2-1.5,3.7-1.5s2.7,0.5,3.7,1.5s1.5,2.2,1.5,3.7V35.5z M212-11.1c-2,0-3.3-0.3-4.1-0.9
								c-0.8-0.6-1.2-1.7-1.2-3.4v-1.7c0-1.7,0.4-2.8,1.3-3.4s2.3-0.9,4.1-0.9c2,0,3.4,0.3,4.2,0.9s1.2,1.7,1.2,3.4v1.7
								c0,1.7-0.4,2.8-1.3,3.4C215.4-11.4,214-11.1,212-11.1z"/>
						</g>
					</g>
				</g>
				<g>
					<g transform="translate(56.706686, 32.20354)">
						<g>
							<path class="st5" d="M258.3-23.2c1.5,0,2.7,0.5,3.7,1.5s1.5,2.2,1.5,3.8v53.4c0,1.5-0.5,2.8-1.5,3.8s-2.2,1.5-3.7,1.5
								s-2.8-0.5-3.7-1.5c-1-1-1.4-2.3-1.4-3.8v-4.2l1.9,0.8c0,0.7-0.4,1.7-1.2,2.7c-0.8,1.1-1.9,2.1-3.3,3.2s-3,1.9-4.9,2.6
								s-3.9,1.1-6.1,1.1c-4,0-7.6-1-10.8-3.1s-5.8-4.9-7.7-8.5s-2.8-7.7-2.8-12.4s0.9-8.9,2.8-12.5s4.4-6.4,7.6-8.5
								c3.2-2,6.7-3.1,10.6-3.1c2.5,0,4.7,0.4,6.8,1.1s3.9,1.7,5.4,2.9c1.5,1.1,2.7,2.3,3.5,3.5c0.9,1.2,1.3,2.2,1.3,3l-3.1,1.1V-18
								c0-1.5,0.5-2.7,1.4-3.7C255.6-22.7,256.8-23.2,258.3-23.2z M240.8,32.2c2.6,0,4.8-0.6,6.7-1.9s3.4-3,4.4-5.2
								c1.1-2.2,1.6-4.7,1.6-7.4c0-2.8-0.5-5.3-1.6-7.5s-2.5-3.9-4.4-5.2s-4.1-1.9-6.7-1.9c-2.5,0-4.7,0.6-6.6,1.9s-3.4,3-4.5,5.2
								s-1.6,4.7-1.6,7.5c0,2.7,0.5,5.2,1.6,7.4s2.6,3.9,4.5,5.2C236.2,31.6,238.4,32.2,240.8,32.2z"/>
						</g>
					</g>
				</g>
			</g>
		</g>
	</g>
</g>
</svg>
